<?xml version="1.0" encoding="utf-8"?>
<!-- Generator: Adobe Illustrator 16.0.0, SVG Export Plug-In . SVG Version: 6.00 Build 0)  -->
<!DOCTYPE svg PUBLIC "-//W3C//DTD SVG 1.1//EN" "http://www.w3.org/Graphics/SVG/1.1/DTD/svg11.dtd">
<svg version="1.1" id="Layer_1" xmlns="http://www.w3.org/2000/svg" xmlns:xlink="http://www.w3.org/1999/xlink" x="0px" y="0px"
	 width="546px" height="671.945px" viewBox="30.5 0 546 671.945" enable-background="new 30.5 0 546 671.945" xml:space="preserve">
<title>orange</title>
<circle fill="#FFE5D2" stroke="#4C241D" stroke-width="20" stroke-miterlimit="10" cx="252.738" cy="359.781" r="205.594"/>
<path fill="#77A052" stroke="#4C241D" stroke-width="20" stroke-linecap="round" stroke-linejoin="round" d="M367.756,223.755
	c0,0,49.505-18.322,67.234-59.565c17.729-41.243-3.031-89.782-3.031-89.782s-49.515,18.322-67.244,59.564
	C346.986,175.215,367.756,223.755,367.756,223.755z"/>
<path fill="none" stroke="#4C241D" stroke-width="20" stroke-linecap="round" stroke-linejoin="round" d="M362.707,213.666
	c0,0-9.563-69.041-86.063-126.416"/>
<path fill="#FC8C29" stroke="#4C241D" stroke-width="20" stroke-linecap="round" stroke-linejoin="round" d="M561.855,418.198
	c0,111.48-84.886,201.855-189.586,201.855c-104.7,0-189.586-90.376-189.586-201.855c0-97.537,65.025-178.933,151.374-197.752
	C346.451,217.759,356.014,202,369.143,202c11.6,0,26.087,15.453,37.112,17.576C494.736,236.626,561.855,319.064,561.855,418.198z"/>
<circle fill="#E66353" cx="520.163" cy="388.171" r="10.222"/>
<circle fill="#E66353" cx="510.601" cy="495.358" r="10.223"/>
<circle fill="#E66353" cx="491.476" cy="445.546" r="10.223"/>
<circle fill="#E66353" cx="468.913" cy="494.358" r="10.223"/>
<circle fill="#E66353" cx="529.726" cy="437.983" r="10.223"/>
<circle fill="#E66353" cx="443.663" cy="562.296" r="10.223"/>
<circle fill="#E66353" cx="472.351" cy="533.608" r="10.223"/>
<circle fill="#4C241D" cx="183.305" cy="193.222" r="10.222"/>
<path fill="#FC8C29" stroke="#4C241D" stroke-width="20" stroke-linecap="round" stroke-linejoin="round" d="M416.897,508
	c0,84.504-79.923,153-178.503,153c-98.58,0-178.503-68.496-178.503-153H416.897z"/>
<path fill="#E86436" stroke="#4C241D" stroke-width="20" stroke-linecap="round" stroke-linejoin="round" d="M381.832,508
	c0,67.894-64.222,122.945-143.438,122.945S94.957,575.894,94.957,508H381.832z"/>
<line fill="none" stroke="#4C241D" stroke-width="20" stroke-linecap="round" stroke-linejoin="round" x1="238.395" y1="536.688" x2="238.395" y2="546.25"/>
<line fill="none" stroke="#4C241D" stroke-width="20" stroke-linecap="round" stroke-linejoin="round" x1="276.645" y1="536.688" x2="286.207" y2="546.25"/>
<line fill="none" stroke="#4C241D" stroke-width="20" stroke-linecap="round" stroke-linejoin="round" x1="200.145" y1="536.688" x2="190.582" y2="546.25"/>
<path fill="none" stroke="#FFCE56" stroke-width="20" stroke-linecap="round" stroke-linejoin="round" d="M305.332,259.375
	c0,0-57.375,28.688-66.938,66.938"/>
<g>
	
		<line fill="none" stroke="#4C241D" stroke-width="20" stroke-miterlimit="10" x1="452.103" y1="377.801" x2="424.579" y2="377.801"/>
	
		<line fill="none" stroke="#4C241D" stroke-width="20" stroke-miterlimit="10" x1="452.103" y1="412.394" x2="426.158" y2="412.394"/>
	
		<line fill="none" stroke="#4C241D" stroke-width="20" stroke-miterlimit="10" x1="452.103" y1="446.986" x2="424.579" y2="446.986"/>
	
		<line fill="none" stroke="#4C241D" stroke-width="20" stroke-miterlimit="10" x1="323.96" y1="377.801" x2="296.437" y2="377.801"/>
	
		<line fill="none" stroke="#4C241D" stroke-width="20" stroke-miterlimit="10" x1="339.677" y1="362.084" x2="339.677" y2="334.561"/>
	
		<line fill="none" stroke="#4C241D" stroke-width="20" stroke-miterlimit="10" x1="339.677" y1="490.227" x2="339.677" y2="462.703"/>
	<line fill="none" stroke="#4C241D" stroke-width="20" stroke-miterlimit="10" x1="374.27" y1="360.505" x2="374.27" y2="334.561"/>
	<line fill="none" stroke="#4C241D" stroke-width="20" stroke-miterlimit="10" x1="374.27" y1="490.227" x2="374.27" y2="464.282"/>
	
		<line fill="none" stroke="#4C241D" stroke-width="20" stroke-miterlimit="10" x1="408.862" y1="362.084" x2="408.862" y2="334.561"/>
	
		<line fill="none" stroke="#4C241D" stroke-width="20" stroke-miterlimit="10" x1="408.862" y1="490.227" x2="408.862" y2="462.703"/>
	
		<line fill="none" stroke="#4C241D" stroke-width="20" stroke-miterlimit="10" x1="322.381" y1="412.394" x2="296.437" y2="412.394"/>
	
		<line fill="none" stroke="#4C241D" stroke-width="20" stroke-miterlimit="10" x1="323.96" y1="446.986" x2="296.437" y2="446.986"/>
	<path fill="none" stroke="#4C241D" stroke-width="20" stroke-miterlimit="10" d="M363.892,464.282h20.756
		c14.531,0,21.795,0,27.346-2.827c4.882-2.487,8.851-6.456,11.338-11.338c2.827-5.551,2.827-12.815,2.827-27.346v-20.756
		c0-14.53,0-21.795-2.827-27.345c-2.487-4.882-6.456-8.851-11.338-11.338c-5.551-2.828-12.814-2.828-27.346-2.828h-20.756
		c-14.53,0-21.795,0-27.345,2.828c-4.882,2.487-8.851,6.456-11.338,11.338c-2.828,5.55-2.828,12.814-2.828,27.345v20.756
		c0,14.53,0,21.795,2.828,27.346c2.487,4.882,6.456,8.851,11.338,11.338C342.097,464.282,349.361,464.282,363.892,464.282z"/>
	<circle fill="#4C241D" cx="350.044" cy="388.434" r="9.935"/>
</g>
</svg>
